<mxfile host="app.diagrams.net" modified="2024-07-15T04:08:33.892Z" agent="Mozilla/5.0 (Windows NT 10.0; Win64; x64) AppleWebKit/537.36 (KHTML, like Gecko) Chrome/126.0.0.0 Safari/537.36" etag="e-Zm50Ms56pnLHEcpUH7" border="50" scale="3" compressed="false" locked="false" version="24.6.5" type="github">
  <diagram name="Blank" id="YmL12bMKpDGza6XwsDPr">
    <mxGraphModel dx="6667" dy="3293" grid="0" gridSize="10" guides="1" tooltips="1" connect="1" arrows="1" fold="1" page="0" pageScale="1" pageWidth="827" pageHeight="1169" background="none" math="1" shadow="0">
      <root>
        <mxCell id="X5NqExCQtvZxIxQ7pmgY-0" />
        <mxCell id="1" parent="X5NqExCQtvZxIxQ7pmgY-0" />
        <mxCell id="UbEVUBbqEcn_ZaoMMAPG-67" value="" style="swimlane;html=1;startSize=20;horizontal=1;containerType=tree;labelBackgroundColor=none;strokeWidth=1;fontFamily=Comic Sans MS;fontSize=9;swimlaneLine=0;dashed=1;collapsible=0;direction=south;strokeColor=default;" vertex="1" parent="1">
          <mxGeometry x="-466" y="-350" width="4840" height="3676" as="geometry" />
        </mxCell>
        <mxCell id="UbEVUBbqEcn_ZaoMMAPG-483" value="" style="group" vertex="1" connectable="0" parent="UbEVUBbqEcn_ZaoMMAPG-67">
          <mxGeometry x="1384.9955464597992" y="1217" width="1768.9244535402008" height="1178" as="geometry" />
        </mxCell>
        <mxCell id="UbEVUBbqEcn_ZaoMMAPG-68" style="jumpStyle=arc;html=1;endArrow=classicThin;endFill=1;jettySize=auto;orthogonalLoop=1;strokeColor=none;strokeWidth=2;fontFamily=Comic Sans MS;fontSize=10;rounded=0;startSize=8;endSize=8;curved=1;" edge="1" parent="UbEVUBbqEcn_ZaoMMAPG-483">
          <mxGeometry relative="1" as="geometry">
            <mxPoint x="20.92445354020083" y="51.5" as="sourcePoint" />
            <mxPoint y="33.23865872855208" as="targetPoint" />
          </mxGeometry>
        </mxCell>
        <mxCell id="UbEVUBbqEcn_ZaoMMAPG-69" style="edgeStyle=orthogonalEdgeStyle;rounded=0;orthogonalLoop=1;jettySize=auto;html=1;exitX=0;exitY=0.5;exitDx=0;exitDy=0;entryX=1;entryY=0.5;entryDx=0;entryDy=0;fillColor=#a20025;strokeColor=#6F0000;" edge="1" parent="UbEVUBbqEcn_ZaoMMAPG-483" source="UbEVUBbqEcn_ZaoMMAPG-71" target="UbEVUBbqEcn_ZaoMMAPG-74">
          <mxGeometry relative="1" as="geometry" />
        </mxCell>
        <mxCell id="UbEVUBbqEcn_ZaoMMAPG-118" style="edgeStyle=orthogonalEdgeStyle;rounded=0;orthogonalLoop=1;jettySize=auto;html=1;exitX=0;exitY=0.75;exitDx=0;exitDy=0;fillColor=#a20025;strokeColor=#6F0000;" edge="1" parent="UbEVUBbqEcn_ZaoMMAPG-483" source="UbEVUBbqEcn_ZaoMMAPG-71" target="UbEVUBbqEcn_ZaoMMAPG-113">
          <mxGeometry relative="1" as="geometry">
            <Array as="points">
              <mxPoint x="869.9244535402008" y="225" />
              <mxPoint x="869.9244535402008" y="248" />
              <mxPoint x="781.9244535402008" y="248" />
            </Array>
          </mxGeometry>
        </mxCell>
        <mxCell id="UbEVUBbqEcn_ZaoMMAPG-362" style="edgeStyle=orthogonalEdgeStyle;rounded=0;orthogonalLoop=1;jettySize=auto;html=1;exitX=0.75;exitY=1;exitDx=0;exitDy=0;entryX=0.5;entryY=0;entryDx=0;entryDy=0;fillColor=#a20025;strokeColor=#6F0000;" edge="1" parent="UbEVUBbqEcn_ZaoMMAPG-483" source="UbEVUBbqEcn_ZaoMMAPG-71" target="UbEVUBbqEcn_ZaoMMAPG-138">
          <mxGeometry relative="1" as="geometry">
            <Array as="points">
              <mxPoint x="1055.9244535402008" y="354" />
              <mxPoint x="1150.9244535402008" y="354" />
              <mxPoint x="1150.9244535402008" y="723" />
              <mxPoint x="1239.9244535402008" y="723" />
            </Array>
          </mxGeometry>
        </mxCell>
        <mxCell id="UbEVUBbqEcn_ZaoMMAPG-478" style="edgeStyle=orthogonalEdgeStyle;rounded=0;orthogonalLoop=1;jettySize=auto;html=1;fillColor=#d80073;strokeColor=#A50040;" edge="1" parent="UbEVUBbqEcn_ZaoMMAPG-483">
          <mxGeometry relative="1" as="geometry">
            <mxPoint x="1254.4629150786623" y="426.92307692307713" as="targetPoint" />
            <mxPoint x="1087.9244535402008" y="242" as="sourcePoint" />
          </mxGeometry>
        </mxCell>
        <mxCell id="UbEVUBbqEcn_ZaoMMAPG-587" style="edgeStyle=orthogonalEdgeStyle;rounded=0;orthogonalLoop=1;jettySize=auto;html=1;exitX=1;exitY=0.5;exitDx=0;exitDy=0;entryX=0;entryY=0.5;entryDx=0;entryDy=0;" edge="1" parent="UbEVUBbqEcn_ZaoMMAPG-483" source="UbEVUBbqEcn_ZaoMMAPG-71" target="UbEVUBbqEcn_ZaoMMAPG-480">
          <mxGeometry relative="1" as="geometry" />
        </mxCell>
        <mxCell id="UbEVUBbqEcn_ZaoMMAPG-590" style="edgeStyle=orthogonalEdgeStyle;rounded=0;orthogonalLoop=1;jettySize=auto;html=1;exitX=0.5;exitY=0;exitDx=0;exitDy=0;" edge="1" parent="UbEVUBbqEcn_ZaoMMAPG-483" source="UbEVUBbqEcn_ZaoMMAPG-71">
          <mxGeometry relative="1" as="geometry">
            <mxPoint x="1145.0044535402008" y="-381" as="targetPoint" />
            <Array as="points">
              <mxPoint x="1049" y="154" />
              <mxPoint x="1049" y="-113" />
              <mxPoint x="1145" y="-113" />
            </Array>
          </mxGeometry>
        </mxCell>
        <mxCell id="UbEVUBbqEcn_ZaoMMAPG-71" value="&lt;b&gt;&amp;nbsp;Establecer requisitos de la solución de software de acuerdo con estándares y procedimiento técnico&lt;/b&gt;" style="rounded=1;whiteSpace=wrap;html=1;fillColor=#ffe6cc;strokeColor=#d79b00;" vertex="1" parent="UbEVUBbqEcn_ZaoMMAPG-483">
          <mxGeometry x="908.0044535402009" y="154" width="200" height="94" as="geometry" />
        </mxCell>
        <mxCell id="UbEVUBbqEcn_ZaoMMAPG-72" style="edgeStyle=orthogonalEdgeStyle;rounded=0;orthogonalLoop=1;jettySize=auto;html=1;exitX=0;exitY=0.5;exitDx=0;exitDy=0;entryX=1;entryY=0.5;entryDx=0;entryDy=0;" edge="1" parent="UbEVUBbqEcn_ZaoMMAPG-483" source="UbEVUBbqEcn_ZaoMMAPG-74" target="UbEVUBbqEcn_ZaoMMAPG-80">
          <mxGeometry relative="1" as="geometry" />
        </mxCell>
        <mxCell id="UbEVUBbqEcn_ZaoMMAPG-73" style="edgeStyle=orthogonalEdgeStyle;rounded=0;orthogonalLoop=1;jettySize=auto;html=1;exitX=0.25;exitY=1;exitDx=0;exitDy=0;entryX=1;entryY=0.379;entryDx=0;entryDy=0;entryPerimeter=0;" edge="1" parent="UbEVUBbqEcn_ZaoMMAPG-483" source="UbEVUBbqEcn_ZaoMMAPG-74" target="UbEVUBbqEcn_ZaoMMAPG-89">
          <mxGeometry relative="1" as="geometry">
            <mxPoint x="511.92445354020083" y="381" as="targetPoint" />
            <Array as="points">
              <mxPoint x="711.9244535402008" y="209" />
              <mxPoint x="711.9244535402008" y="239" />
              <mxPoint x="573.9244535402008" y="239" />
              <mxPoint x="573.9244535402008" y="381" />
            </Array>
          </mxGeometry>
        </mxCell>
        <mxCell id="UbEVUBbqEcn_ZaoMMAPG-74" value="&lt;p data-sourcepos=&quot;7:1-7:46&quot;&gt;&lt;strong&gt;Metodologías de desarrollo de software&lt;/strong&gt;&lt;/p&gt;" style="rounded=0;whiteSpace=wrap;html=1;fillColor=#f8cecc;strokeColor=#b85450;" vertex="1" parent="UbEVUBbqEcn_ZaoMMAPG-483">
          <mxGeometry x="655.9244535402008" y="149" width="102" height="60" as="geometry" />
        </mxCell>
        <mxCell id="UbEVUBbqEcn_ZaoMMAPG-80" value="agiles" style="rounded=0;whiteSpace=wrap;html=1;fillColor=#d5e8d4;strokeColor=#82b366;" vertex="1" parent="UbEVUBbqEcn_ZaoMMAPG-483">
          <mxGeometry x="496.92445354020083" y="163.5" width="120" height="31" as="geometry" />
        </mxCell>
        <mxCell id="UbEVUBbqEcn_ZaoMMAPG-353" value="" style="group" vertex="1" connectable="0" parent="UbEVUBbqEcn_ZaoMMAPG-483">
          <mxGeometry x="333.92445354020083" y="108" width="202" height="212" as="geometry" />
        </mxCell>
        <mxCell id="UbEVUBbqEcn_ZaoMMAPG-81" value="caracteristicas" style="shape=parallelogram;perimeter=parallelogramPerimeter;whiteSpace=wrap;html=1;fixedSize=1;fillColor=#e1d5e7;strokeColor=#9673a6;" vertex="1" parent="UbEVUBbqEcn_ZaoMMAPG-353">
          <mxGeometry x="9" y="113" width="112" height="28" as="geometry" />
        </mxCell>
        <mxCell id="UbEVUBbqEcn_ZaoMMAPG-82" value="ventajas" style="shape=parallelogram;perimeter=parallelogramPerimeter;whiteSpace=wrap;html=1;fixedSize=1;fillColor=#e1d5e7;strokeColor=#9673a6;" vertex="1" parent="UbEVUBbqEcn_ZaoMMAPG-353">
          <mxGeometry y="149" width="112" height="28" as="geometry" />
        </mxCell>
        <mxCell id="UbEVUBbqEcn_ZaoMMAPG-83" value="conceptos" style="shape=parallelogram;perimeter=parallelogramPerimeter;whiteSpace=wrap;html=1;fixedSize=1;fillColor=#e1d5e7;strokeColor=#9673a6;" vertex="1" parent="UbEVUBbqEcn_ZaoMMAPG-353">
          <mxGeometry x="20" y="41" width="112" height="28" as="geometry" />
        </mxCell>
        <mxCell id="UbEVUBbqEcn_ZaoMMAPG-84" value="tipos" style="shape=parallelogram;perimeter=parallelogramPerimeter;whiteSpace=wrap;html=1;fixedSize=1;fillColor=#e1d5e7;strokeColor=#9673a6;" vertex="1" parent="UbEVUBbqEcn_ZaoMMAPG-353">
          <mxGeometry x="17" y="77" width="112" height="28" as="geometry" />
        </mxCell>
        <mxCell id="UbEVUBbqEcn_ZaoMMAPG-85" value="desventajas" style="shape=parallelogram;perimeter=parallelogramPerimeter;whiteSpace=wrap;html=1;fixedSize=1;fillColor=#e1d5e7;strokeColor=#9673a6;" vertex="1" parent="UbEVUBbqEcn_ZaoMMAPG-353">
          <mxGeometry x="3" y="184" width="112" height="28" as="geometry" />
        </mxCell>
        <mxCell id="UbEVUBbqEcn_ZaoMMAPG-355" value="" style="group" vertex="1" connectable="0" parent="UbEVUBbqEcn_ZaoMMAPG-483">
          <mxGeometry x="328.92445354020083" y="360" width="177" height="252" as="geometry" />
        </mxCell>
        <mxCell id="UbEVUBbqEcn_ZaoMMAPG-86" style="edgeStyle=orthogonalEdgeStyle;rounded=0;orthogonalLoop=1;jettySize=auto;html=1;exitX=0;exitY=0.5;exitDx=0;exitDy=0;entryX=0.116;entryY=0.185;entryDx=0;entryDy=0;fillColor=#008a00;strokeColor=#000000;entryPerimeter=0;" edge="1" parent="UbEVUBbqEcn_ZaoMMAPG-355">
          <mxGeometry relative="1" as="geometry">
            <mxPoint x="47" y="39" as="sourcePoint" />
            <mxPoint x="60.73199999999997" y="151.67999999999984" as="targetPoint" />
            <Array as="points">
              <mxPoint x="26" y="39" />
              <mxPoint x="26" y="152" />
              <mxPoint x="49" y="152" />
            </Array>
          </mxGeometry>
        </mxCell>
        <mxCell id="UbEVUBbqEcn_ZaoMMAPG-87" style="edgeStyle=orthogonalEdgeStyle;rounded=0;orthogonalLoop=1;jettySize=auto;html=1;exitX=0;exitY=0.75;exitDx=0;exitDy=0;entryX=0;entryY=0.75;entryDx=0;entryDy=0;fillColor=#1ba1e2;strokeColor=#000000;" edge="1" parent="UbEVUBbqEcn_ZaoMMAPG-355" source="UbEVUBbqEcn_ZaoMMAPG-89" target="UbEVUBbqEcn_ZaoMMAPG-94">
          <mxGeometry relative="1" as="geometry">
            <Array as="points">
              <mxPoint x="46" y="14" />
              <mxPoint x="13" y="14" />
              <mxPoint x="13" y="202" />
            </Array>
          </mxGeometry>
        </mxCell>
        <mxCell id="UbEVUBbqEcn_ZaoMMAPG-88" style="edgeStyle=orthogonalEdgeStyle;rounded=0;orthogonalLoop=1;jettySize=auto;html=1;exitX=0;exitY=0.25;exitDx=0;exitDy=0;entryX=0;entryY=0.75;entryDx=0;entryDy=0;fillColor=#a20025;strokeColor=#000000;" edge="1" parent="UbEVUBbqEcn_ZaoMMAPG-355" source="UbEVUBbqEcn_ZaoMMAPG-89" target="UbEVUBbqEcn_ZaoMMAPG-92">
          <mxGeometry relative="1" as="geometry">
            <Array as="points">
              <mxPoint x="46" />
              <mxPoint />
              <mxPoint y="244" />
            </Array>
          </mxGeometry>
        </mxCell>
        <mxCell id="UbEVUBbqEcn_ZaoMMAPG-89" value="&lt;br&gt;&lt;p data-sourcepos=&quot;16:3-16:20&quot;&gt;&lt;strong&gt;Tradicionales&lt;/strong&gt;&lt;/p&gt;&lt;div&gt;&lt;br/&gt;&lt;/div&gt;" style="rounded=0;whiteSpace=wrap;html=1;fillColor=#d5e8d4;strokeColor=#82b366;" vertex="1" parent="UbEVUBbqEcn_ZaoMMAPG-355">
          <mxGeometry x="46" y="10" width="120" height="29" as="geometry" />
        </mxCell>
        <mxCell id="UbEVUBbqEcn_ZaoMMAPG-90" value="Conceptos" style="shape=parallelogram;perimeter=parallelogramPerimeter;whiteSpace=wrap;html=1;fixedSize=1;fillColor=#e1d5e7;strokeColor=#9673a6;" vertex="1" parent="UbEVUBbqEcn_ZaoMMAPG-355">
          <mxGeometry x="50" y="72" width="127" height="28" as="geometry" />
        </mxCell>
        <mxCell id="UbEVUBbqEcn_ZaoMMAPG-91" value="Tipos" style="shape=parallelogram;perimeter=parallelogramPerimeter;whiteSpace=wrap;html=1;fixedSize=1;fillColor=#e1d5e7;strokeColor=#9673a6;" vertex="1" parent="UbEVUBbqEcn_ZaoMMAPG-355">
          <mxGeometry x="46" y="106" width="127" height="28" as="geometry" />
        </mxCell>
        <mxCell id="UbEVUBbqEcn_ZaoMMAPG-92" value="Desventajas" style="shape=parallelogram;perimeter=parallelogramPerimeter;whiteSpace=wrap;html=1;fixedSize=1;fillColor=#e1d5e7;strokeColor=#9673a6;" vertex="1" parent="UbEVUBbqEcn_ZaoMMAPG-355">
          <mxGeometry x="39" y="224" width="127" height="28" as="geometry" />
        </mxCell>
        <mxCell id="UbEVUBbqEcn_ZaoMMAPG-93" value="Caracteristicas" style="shape=parallelogram;perimeter=parallelogramPerimeter;whiteSpace=wrap;html=1;fixedSize=1;fillColor=#e1d5e7;strokeColor=#9673a6;" vertex="1" parent="UbEVUBbqEcn_ZaoMMAPG-355">
          <mxGeometry x="46" y="144" width="127" height="28" as="geometry" />
        </mxCell>
        <mxCell id="UbEVUBbqEcn_ZaoMMAPG-94" value="Ventajas" style="shape=parallelogram;perimeter=parallelogramPerimeter;whiteSpace=wrap;html=1;fixedSize=1;fillColor=#e1d5e7;strokeColor=#9673a6;" vertex="1" parent="UbEVUBbqEcn_ZaoMMAPG-355">
          <mxGeometry x="42.5" y="182" width="127" height="28" as="geometry" />
        </mxCell>
        <mxCell id="UbEVUBbqEcn_ZaoMMAPG-95" style="edgeStyle=orthogonalEdgeStyle;rounded=0;orthogonalLoop=1;jettySize=auto;html=1;entryX=0.453;entryY=0.032;entryDx=0;entryDy=0;entryPerimeter=0;" edge="1" parent="UbEVUBbqEcn_ZaoMMAPG-355" source="UbEVUBbqEcn_ZaoMMAPG-89" target="UbEVUBbqEcn_ZaoMMAPG-90">
          <mxGeometry relative="1" as="geometry">
            <Array as="points">
              <mxPoint x="108" y="58" />
            </Array>
          </mxGeometry>
        </mxCell>
        <mxCell id="UbEVUBbqEcn_ZaoMMAPG-96" style="edgeStyle=orthogonalEdgeStyle;rounded=0;orthogonalLoop=1;jettySize=auto;html=1;exitX=0;exitY=0.25;exitDx=0;exitDy=0;entryX=0.008;entryY=0.782;entryDx=0;entryDy=0;entryPerimeter=0;fillColor=#fa6800;strokeColor=#000000;" edge="1" parent="UbEVUBbqEcn_ZaoMMAPG-355">
          <mxGeometry relative="1" as="geometry">
            <mxPoint x="44.980000000000246" y="29" as="sourcePoint" />
            <mxPoint x="49.99599999999987" y="122.64599999999996" as="targetPoint" />
            <Array as="points">
              <mxPoint x="45" y="27" />
              <mxPoint x="37" y="27" />
              <mxPoint x="37" y="123" />
            </Array>
          </mxGeometry>
        </mxCell>
        <mxCell id="UbEVUBbqEcn_ZaoMMAPG-360" value="" style="group" vertex="1" connectable="0" parent="UbEVUBbqEcn_ZaoMMAPG-483">
          <mxGeometry x="554.9244535402008" y="331" width="573" height="471" as="geometry" />
        </mxCell>
        <mxCell id="UbEVUBbqEcn_ZaoMMAPG-101" value="funcionales, no funcionales, de negocio&amp;nbsp;" style="shape=parallelogram;perimeter=parallelogramPerimeter;whiteSpace=wrap;html=1;fixedSize=1;fillColor=#e1d5e7;strokeColor=#9673a6;" vertex="1" parent="UbEVUBbqEcn_ZaoMMAPG-360">
          <mxGeometry y="157" width="117" height="67" as="geometry" />
        </mxCell>
        <mxCell id="UbEVUBbqEcn_ZaoMMAPG-102" value="&lt;b&gt;Especificaciones&lt;/b&gt;: Detalladas, precisas, verificables" style="shape=parallelogram;perimeter=parallelogramPerimeter;whiteSpace=wrap;html=1;fixedSize=1;fillColor=#e1d5e7;strokeColor=#9673a6;" vertex="1" parent="UbEVUBbqEcn_ZaoMMAPG-360">
          <mxGeometry x="180" y="164" width="154" height="47" as="geometry" />
        </mxCell>
        <mxCell id="UbEVUBbqEcn_ZaoMMAPG-104" value="&lt;div style=&quot;&quot;&gt;&lt;span style=&quot;background-color: initial;&quot;&gt;&lt;b&gt;Objetivos:&lt;/b&gt; generales, medibles, alcanzables, relevantes, con plazos definidos&lt;/span&gt;&lt;/div&gt;" style="shape=parallelogram;perimeter=parallelogramPerimeter;whiteSpace=wrap;html=1;fixedSize=1;align=center;fillColor=#e1d5e7;strokeColor=#9673a6;" vertex="1" parent="UbEVUBbqEcn_ZaoMMAPG-360">
          <mxGeometry x="180" y="217" width="168" height="60" as="geometry" />
        </mxCell>
        <mxCell id="UbEVUBbqEcn_ZaoMMAPG-105" value="&lt;b&gt;Prioridades:&amp;nbsp;&lt;/b&gt;&lt;div&gt;alta media, baja&lt;/div&gt;" style="shape=parallelogram;perimeter=parallelogramPerimeter;whiteSpace=wrap;html=1;fixedSize=1;align=center;fillColor=#e1d5e7;strokeColor=#9673a6;" vertex="1" parent="UbEVUBbqEcn_ZaoMMAPG-360">
          <mxGeometry x="177" y="284" width="168" height="41" as="geometry" />
        </mxCell>
        <mxCell id="UbEVUBbqEcn_ZaoMMAPG-106" value="&lt;b&gt;Concepto:&lt;/b&gt; Proceso de identificar y documentar los requisitos" style="shape=parallelogram;perimeter=parallelogramPerimeter;whiteSpace=wrap;html=1;fixedSize=1;fillColor=#e1d5e7;strokeColor=#9673a6;" vertex="1" parent="UbEVUBbqEcn_ZaoMMAPG-360">
          <mxGeometry x="399" y="166" width="174" height="53" as="geometry" />
        </mxCell>
        <mxCell id="UbEVUBbqEcn_ZaoMMAPG-107" value="&lt;b&gt;Análisis de documentos:&lt;/b&gt; Fuentes existentes,&amp;nbsp;&lt;div&gt;contratos, especificaciones&lt;/div&gt;" style="shape=parallelogram;perimeter=parallelogramPerimeter;whiteSpace=wrap;html=1;fixedSize=1;fillColor=#e1d5e7;strokeColor=#9673a6;align=center;" vertex="1" parent="UbEVUBbqEcn_ZaoMMAPG-360">
          <mxGeometry x="388" y="232" width="174" height="65" as="geometry" />
        </mxCell>
        <mxCell id="UbEVUBbqEcn_ZaoMMAPG-108" value="&lt;b&gt;Técnicas de recolección&amp;nbsp;&lt;/b&gt;&lt;div&gt;&lt;b&gt;de información:&lt;/b&gt;&amp;nbsp;&lt;/div&gt;&lt;div&gt;Entrevistas, encuestas, observación,&amp;nbsp;&lt;div&gt;focus groups&lt;/div&gt;&lt;/div&gt;" style="shape=parallelogram;perimeter=parallelogramPerimeter;whiteSpace=wrap;html=1;fixedSize=1;fillColor=#e1d5e7;strokeColor=#9673a6;" vertex="1" parent="UbEVUBbqEcn_ZaoMMAPG-360">
          <mxGeometry x="380" y="312" width="174" height="82" as="geometry" />
        </mxCell>
        <mxCell id="UbEVUBbqEcn_ZaoMMAPG-109" value="&lt;b&gt;Caracteristicas&lt;/b&gt;:&lt;div&gt;Particiipacion del cliente, claridad,&amp;nbsp;&lt;div&gt;complejitud&lt;/div&gt;&lt;/div&gt;" style="shape=parallelogram;perimeter=parallelogramPerimeter;whiteSpace=wrap;html=1;fixedSize=1;fillColor=#e1d5e7;strokeColor=#9673a6;" vertex="1" parent="UbEVUBbqEcn_ZaoMMAPG-360">
          <mxGeometry x="370" y="411" width="173" height="60" as="geometry" />
        </mxCell>
        <mxCell id="UbEVUBbqEcn_ZaoMMAPG-110" value="&lt;b&gt;Conceptos Fundamentales&lt;/b&gt;" style="rounded=0;whiteSpace=wrap;html=1;fillColor=#d5e8d4;strokeColor=#82b366;" vertex="1" parent="UbEVUBbqEcn_ZaoMMAPG-360">
          <mxGeometry x="8" y="82" width="120" height="44" as="geometry" />
        </mxCell>
        <mxCell id="UbEVUBbqEcn_ZaoMMAPG-125" style="edgeStyle=orthogonalEdgeStyle;rounded=0;orthogonalLoop=1;jettySize=auto;html=1;exitX=0.5;exitY=1;exitDx=0;exitDy=0;entryX=0.5;entryY=0;entryDx=0;entryDy=0;" edge="1" parent="UbEVUBbqEcn_ZaoMMAPG-360" source="UbEVUBbqEcn_ZaoMMAPG-111" target="UbEVUBbqEcn_ZaoMMAPG-106">
          <mxGeometry relative="1" as="geometry" />
        </mxCell>
        <mxCell id="UbEVUBbqEcn_ZaoMMAPG-126" style="edgeStyle=orthogonalEdgeStyle;rounded=0;orthogonalLoop=1;jettySize=auto;html=1;exitX=0;exitY=0.25;exitDx=0;exitDy=0;entryX=0;entryY=0.75;entryDx=0;entryDy=0;" edge="1" parent="UbEVUBbqEcn_ZaoMMAPG-360" source="UbEVUBbqEcn_ZaoMMAPG-111" target="UbEVUBbqEcn_ZaoMMAPG-109">
          <mxGeometry relative="1" as="geometry">
            <Array as="points">
              <mxPoint x="365" y="95" />
              <mxPoint x="365" y="455" />
            </Array>
          </mxGeometry>
        </mxCell>
        <mxCell id="UbEVUBbqEcn_ZaoMMAPG-127" style="edgeStyle=orthogonalEdgeStyle;rounded=0;orthogonalLoop=1;jettySize=auto;html=1;exitX=0;exitY=0.5;exitDx=0;exitDy=0;" edge="1" parent="UbEVUBbqEcn_ZaoMMAPG-360" source="UbEVUBbqEcn_ZaoMMAPG-111" target="UbEVUBbqEcn_ZaoMMAPG-107">
          <mxGeometry relative="1" as="geometry">
            <mxPoint x="385.1111195882163" y="213.94445292154955" as="targetPoint" />
            <Array as="points">
              <mxPoint x="383" y="106" />
              <mxPoint x="383" y="180" />
              <mxPoint x="385" y="180" />
              <mxPoint x="385" y="265" />
            </Array>
          </mxGeometry>
        </mxCell>
        <mxCell id="UbEVUBbqEcn_ZaoMMAPG-128" style="edgeStyle=orthogonalEdgeStyle;rounded=0;orthogonalLoop=1;jettySize=auto;html=1;exitX=0;exitY=0.75;exitDx=0;exitDy=0;entryX=0;entryY=0.5;entryDx=0;entryDy=0;" edge="1" parent="UbEVUBbqEcn_ZaoMMAPG-360" source="UbEVUBbqEcn_ZaoMMAPG-111" target="UbEVUBbqEcn_ZaoMMAPG-108">
          <mxGeometry relative="1" as="geometry">
            <Array as="points">
              <mxPoint x="375" y="117" />
              <mxPoint x="375" y="353" />
            </Array>
          </mxGeometry>
        </mxCell>
        <mxCell id="UbEVUBbqEcn_ZaoMMAPG-111" value="&lt;b&gt;Elicitacion de requisitos&lt;/b&gt;" style="rounded=0;whiteSpace=wrap;html=1;fillColor=#d5e8d4;strokeColor=#82b366;" vertex="1" parent="UbEVUBbqEcn_ZaoMMAPG-360">
          <mxGeometry x="399" y="84" width="120" height="44" as="geometry" />
        </mxCell>
        <mxCell id="UbEVUBbqEcn_ZaoMMAPG-120" style="edgeStyle=orthogonalEdgeStyle;rounded=0;orthogonalLoop=1;jettySize=auto;html=1;exitX=0.5;exitY=1;exitDx=0;exitDy=0;entryX=0.5;entryY=0;entryDx=0;entryDy=0;" edge="1" parent="UbEVUBbqEcn_ZaoMMAPG-360" source="UbEVUBbqEcn_ZaoMMAPG-112" target="UbEVUBbqEcn_ZaoMMAPG-102">
          <mxGeometry relative="1" as="geometry" />
        </mxCell>
        <mxCell id="UbEVUBbqEcn_ZaoMMAPG-124" style="edgeStyle=orthogonalEdgeStyle;rounded=0;orthogonalLoop=1;jettySize=auto;html=1;exitX=0;exitY=0.75;exitDx=0;exitDy=0;entryX=0;entryY=0.5;entryDx=0;entryDy=0;" edge="1" parent="UbEVUBbqEcn_ZaoMMAPG-360" source="UbEVUBbqEcn_ZaoMMAPG-112" target="UbEVUBbqEcn_ZaoMMAPG-105">
          <mxGeometry relative="1" as="geometry">
            <Array as="points">
              <mxPoint x="197" y="117" />
              <mxPoint x="149" y="117" />
              <mxPoint x="149" y="305" />
              <mxPoint x="177" y="305" />
            </Array>
          </mxGeometry>
        </mxCell>
        <mxCell id="UbEVUBbqEcn_ZaoMMAPG-112" value="&lt;b&gt;Tipos&lt;/b&gt;" style="rounded=0;whiteSpace=wrap;html=1;fillColor=#d5e8d4;strokeColor=#82b366;" vertex="1" parent="UbEVUBbqEcn_ZaoMMAPG-360">
          <mxGeometry x="197" y="82" width="120" height="44" as="geometry" />
        </mxCell>
        <mxCell id="UbEVUBbqEcn_ZaoMMAPG-129" style="edgeStyle=orthogonalEdgeStyle;rounded=0;orthogonalLoop=1;jettySize=auto;html=1;exitX=0.25;exitY=1;exitDx=0;exitDy=0;entryX=0.5;entryY=0;entryDx=0;entryDy=0;" edge="1" parent="UbEVUBbqEcn_ZaoMMAPG-360" source="UbEVUBbqEcn_ZaoMMAPG-113" target="UbEVUBbqEcn_ZaoMMAPG-110">
          <mxGeometry relative="1" as="geometry">
            <Array as="points">
              <mxPoint x="174" y="37" />
              <mxPoint x="174" y="60" />
              <mxPoint x="68" y="60" />
            </Array>
          </mxGeometry>
        </mxCell>
        <mxCell id="UbEVUBbqEcn_ZaoMMAPG-130" style="edgeStyle=orthogonalEdgeStyle;rounded=0;orthogonalLoop=1;jettySize=auto;html=1;exitX=0.5;exitY=1;exitDx=0;exitDy=0;entryX=0.5;entryY=0;entryDx=0;entryDy=0;" edge="1" parent="UbEVUBbqEcn_ZaoMMAPG-360" source="UbEVUBbqEcn_ZaoMMAPG-113" target="UbEVUBbqEcn_ZaoMMAPG-112">
          <mxGeometry relative="1" as="geometry" />
        </mxCell>
        <mxCell id="UbEVUBbqEcn_ZaoMMAPG-131" style="edgeStyle=orthogonalEdgeStyle;rounded=0;orthogonalLoop=1;jettySize=auto;html=1;exitX=0.75;exitY=1;exitDx=0;exitDy=0;entryX=0.5;entryY=0;entryDx=0;entryDy=0;" edge="1" parent="UbEVUBbqEcn_ZaoMMAPG-360" source="UbEVUBbqEcn_ZaoMMAPG-113" target="UbEVUBbqEcn_ZaoMMAPG-111">
          <mxGeometry relative="1" as="geometry">
            <Array as="points">
              <mxPoint x="272" y="37" />
              <mxPoint x="272" y="61" />
              <mxPoint x="459" y="61" />
            </Array>
          </mxGeometry>
        </mxCell>
        <mxCell id="UbEVUBbqEcn_ZaoMMAPG-113" value="&lt;b&gt;Requisitos&lt;/b&gt;" style="rounded=0;whiteSpace=wrap;html=1;fillColor=#f8cecc;strokeColor=#b85450;" vertex="1" parent="UbEVUBbqEcn_ZaoMMAPG-360">
          <mxGeometry x="167" width="120" height="37" as="geometry" />
        </mxCell>
        <mxCell id="UbEVUBbqEcn_ZaoMMAPG-119" style="edgeStyle=orthogonalEdgeStyle;rounded=0;orthogonalLoop=1;jettySize=auto;html=1;exitX=0.5;exitY=1;exitDx=0;exitDy=0;entryX=0.592;entryY=0.017;entryDx=0;entryDy=0;entryPerimeter=0;" edge="1" parent="UbEVUBbqEcn_ZaoMMAPG-360" source="UbEVUBbqEcn_ZaoMMAPG-110" target="UbEVUBbqEcn_ZaoMMAPG-101">
          <mxGeometry relative="1" as="geometry" />
        </mxCell>
        <mxCell id="UbEVUBbqEcn_ZaoMMAPG-122" style="edgeStyle=orthogonalEdgeStyle;rounded=0;orthogonalLoop=1;jettySize=auto;html=1;exitX=0;exitY=0.5;exitDx=0;exitDy=0;entryX=0.042;entryY=0.612;entryDx=0;entryDy=0;entryPerimeter=0;" edge="1" parent="UbEVUBbqEcn_ZaoMMAPG-360" source="UbEVUBbqEcn_ZaoMMAPG-112" target="UbEVUBbqEcn_ZaoMMAPG-104">
          <mxGeometry relative="1" as="geometry">
            <Array as="points">
              <mxPoint x="197" y="106" />
              <mxPoint x="165" y="106" />
              <mxPoint x="165" y="249" />
              <mxPoint x="172" y="249" />
            </Array>
          </mxGeometry>
        </mxCell>
        <mxCell id="UbEVUBbqEcn_ZaoMMAPG-361" value="" style="group" vertex="1" connectable="0" parent="UbEVUBbqEcn_ZaoMMAPG-483">
          <mxGeometry x="1200.9244535402008" y="579" width="568" height="599" as="geometry" />
        </mxCell>
        <mxCell id="UbEVUBbqEcn_ZaoMMAPG-339" style="edgeStyle=orthogonalEdgeStyle;rounded=0;orthogonalLoop=1;jettySize=auto;html=1;exitX=1;exitY=0.25;exitDx=0;exitDy=0;entryX=0;entryY=0.5;entryDx=0;entryDy=0;" edge="1" parent="UbEVUBbqEcn_ZaoMMAPG-361" source="UbEVUBbqEcn_ZaoMMAPG-138" target="UbEVUBbqEcn_ZaoMMAPG-139">
          <mxGeometry relative="1" as="geometry">
            <Array as="points">
              <mxPoint x="108" y="219" />
              <mxPoint x="135" y="219" />
              <mxPoint x="135" y="151" />
            </Array>
          </mxGeometry>
        </mxCell>
        <mxCell id="UbEVUBbqEcn_ZaoMMAPG-138" value="&lt;strong&gt;Técnicas de recolección de información:&lt;/strong&gt;" style="rounded=0;whiteSpace=wrap;html=1;fillColor=#f8cecc;strokeColor=#b85450;" vertex="1" parent="UbEVUBbqEcn_ZaoMMAPG-361">
          <mxGeometry x="-12" y="191" width="120" height="60" as="geometry" />
        </mxCell>
        <mxCell id="UbEVUBbqEcn_ZaoMMAPG-345" value="" style="group" vertex="1" connectable="0" parent="UbEVUBbqEcn_ZaoMMAPG-361">
          <mxGeometry x="215" y="11" width="367" height="599" as="geometry" />
        </mxCell>
        <mxCell id="UbEVUBbqEcn_ZaoMMAPG-331" style="edgeStyle=orthogonalEdgeStyle;rounded=0;orthogonalLoop=1;jettySize=auto;html=1;exitX=1;exitY=0.5;exitDx=0;exitDy=0;entryX=0;entryY=0.5;entryDx=0;entryDy=0;" edge="1" parent="UbEVUBbqEcn_ZaoMMAPG-345" source="UbEVUBbqEcn_ZaoMMAPG-140" target="UbEVUBbqEcn_ZaoMMAPG-327">
          <mxGeometry relative="1" as="geometry" />
        </mxCell>
        <mxCell id="UbEVUBbqEcn_ZaoMMAPG-332" style="edgeStyle=orthogonalEdgeStyle;rounded=0;orthogonalLoop=1;jettySize=auto;html=1;exitX=1;exitY=0.75;exitDx=0;exitDy=0;entryX=0;entryY=0.5;entryDx=0;entryDy=0;" edge="1" parent="UbEVUBbqEcn_ZaoMMAPG-345" source="UbEVUBbqEcn_ZaoMMAPG-140" target="UbEVUBbqEcn_ZaoMMAPG-328">
          <mxGeometry relative="1" as="geometry">
            <Array as="points">
              <mxPoint x="28" y="367" />
              <mxPoint x="148" y="367" />
              <mxPoint x="148" y="381" />
              <mxPoint x="159" y="381" />
            </Array>
          </mxGeometry>
        </mxCell>
        <mxCell id="UbEVUBbqEcn_ZaoMMAPG-333" style="edgeStyle=orthogonalEdgeStyle;rounded=0;orthogonalLoop=1;jettySize=auto;html=1;exitX=0.75;exitY=1;exitDx=0;exitDy=0;entryX=0;entryY=0.75;entryDx=0;entryDy=0;" edge="1" parent="UbEVUBbqEcn_ZaoMMAPG-345" source="UbEVUBbqEcn_ZaoMMAPG-140" target="UbEVUBbqEcn_ZaoMMAPG-329">
          <mxGeometry relative="1" as="geometry">
            <Array as="points">
              <mxPoint x="-2" y="434" />
            </Array>
          </mxGeometry>
        </mxCell>
        <mxCell id="UbEVUBbqEcn_ZaoMMAPG-140" value="&lt;strong&gt;Métodos de observación:&lt;/strong&gt;" style="rounded=0;whiteSpace=wrap;html=1;fillColor=#d5e8d4;strokeColor=#82b366;" vertex="1" parent="UbEVUBbqEcn_ZaoMMAPG-345">
          <mxGeometry x="-92" y="337" width="120" height="37" as="geometry" />
        </mxCell>
        <mxCell id="UbEVUBbqEcn_ZaoMMAPG-319" value="&lt;b&gt;Focus groups:&lt;/b&gt;&lt;div&gt;&amp;nbsp;Guiados,&amp;nbsp;no guiados&lt;/div&gt;" style="shape=parallelogram;perimeter=parallelogramPerimeter;whiteSpace=wrap;html=1;fixedSize=1;fillColor=#e1d5e7;strokeColor=#9673a6;" vertex="1" parent="UbEVUBbqEcn_ZaoMMAPG-345">
          <mxGeometry x="111" y="195" width="169" height="49" as="geometry" />
        </mxCell>
        <mxCell id="UbEVUBbqEcn_ZaoMMAPG-320" value="&lt;b&gt;Observación&lt;/b&gt;:&amp;nbsp;&lt;div&gt;Participativa,&lt;div&gt;&amp;nbsp;no participativa&lt;/div&gt;&lt;/div&gt;" style="shape=parallelogram;perimeter=parallelogramPerimeter;whiteSpace=wrap;html=1;fixedSize=1;fillColor=#e1d5e7;strokeColor=#9673a6;" vertex="1" parent="UbEVUBbqEcn_ZaoMMAPG-345">
          <mxGeometry x="120" y="138.5" width="167.5" height="48" as="geometry" />
        </mxCell>
        <mxCell id="UbEVUBbqEcn_ZaoMMAPG-321" value="&lt;b&gt;Encuestas:&amp;nbsp;&lt;/b&gt;&lt;div&gt;&lt;span style=&quot;background-color: initial;&quot;&gt;Cerradas,&lt;/span&gt;&lt;span style=&quot;background-color: initial;&quot;&gt;abiertas,&lt;/span&gt;&lt;div&gt;&lt;div&gt;&lt;div&gt;&lt;div&gt;&amp;nbsp;mixtas&lt;/div&gt;&lt;/div&gt;&lt;/div&gt;&lt;/div&gt;&lt;/div&gt;" style="shape=parallelogram;perimeter=parallelogramPerimeter;whiteSpace=wrap;html=1;fixedSize=1;fillColor=#e1d5e7;strokeColor=#9673a6;" vertex="1" parent="UbEVUBbqEcn_ZaoMMAPG-345">
          <mxGeometry x="127" y="84" width="167" height="46" as="geometry" />
        </mxCell>
        <mxCell id="UbEVUBbqEcn_ZaoMMAPG-327" value="&lt;b&gt;Directa:&lt;/b&gt;&amp;nbsp;&lt;div&gt;Presencial, sin intermediarios&lt;/div&gt;" style="shape=parallelogram;perimeter=parallelogramPerimeter;whiteSpace=wrap;html=1;fixedSize=1;fillColor=#e1d5e7;strokeColor=#9673a6;" vertex="1" parent="UbEVUBbqEcn_ZaoMMAPG-345">
          <mxGeometry x="176" y="314" width="191" height="37" as="geometry" />
        </mxCell>
        <mxCell id="UbEVUBbqEcn_ZaoMMAPG-328" value="&lt;b&gt;Indirecta:&lt;/b&gt; A&amp;nbsp;&lt;span style=&quot;background-color: initial;&quot;&gt;través&lt;/span&gt;&lt;div&gt;&amp;nbsp;de instrumentos, registros&lt;/div&gt;" style="shape=parallelogram;perimeter=parallelogramPerimeter;whiteSpace=wrap;html=1;fixedSize=1;fillColor=#e1d5e7;strokeColor=#9673a6;" vertex="1" parent="UbEVUBbqEcn_ZaoMMAPG-345">
          <mxGeometry x="162" y="362" width="196" height="37" as="geometry" />
        </mxCell>
        <mxCell id="UbEVUBbqEcn_ZaoMMAPG-329" value="&lt;b&gt;Participativa:&lt;/b&gt; El observador&amp;nbsp;&lt;div&gt;participa en la actividad&lt;/div&gt;" style="shape=parallelogram;perimeter=parallelogramPerimeter;whiteSpace=wrap;html=1;fixedSize=1;fillColor=#e1d5e7;strokeColor=#9673a6;" vertex="1" parent="UbEVUBbqEcn_ZaoMMAPG-345">
          <mxGeometry x="146" y="406" width="196" height="38" as="geometry" />
        </mxCell>
        <mxCell id="UbEVUBbqEcn_ZaoMMAPG-334" style="edgeStyle=orthogonalEdgeStyle;rounded=0;orthogonalLoop=1;jettySize=auto;html=1;exitX=0.5;exitY=1;exitDx=0;exitDy=0;entryX=0.05;entryY=0.635;entryDx=0;entryDy=0;entryPerimeter=0;" edge="1" parent="UbEVUBbqEcn_ZaoMMAPG-345" source="UbEVUBbqEcn_ZaoMMAPG-140" target="UbEVUBbqEcn_ZaoMMAPG-330">
          <mxGeometry relative="1" as="geometry">
            <Array as="points">
              <mxPoint x="-32" y="480" />
            </Array>
          </mxGeometry>
        </mxCell>
        <mxCell id="UbEVUBbqEcn_ZaoMMAPG-330" value="&lt;b&gt;Participativa:&lt;/b&gt;&amp;nbsp;&lt;div&gt;El observador&amp;nbsp;&lt;div&gt;participa en la actividad&lt;/div&gt;&lt;/div&gt;" style="shape=parallelogram;perimeter=parallelogramPerimeter;whiteSpace=wrap;html=1;fixedSize=1;fillColor=#e1d5e7;strokeColor=#9673a6;" vertex="1" parent="UbEVUBbqEcn_ZaoMMAPG-345">
          <mxGeometry x="140" y="451" width="196" height="46" as="geometry" />
        </mxCell>
        <mxCell id="UbEVUBbqEcn_ZaoMMAPG-322" value="&lt;b&gt;Entrevistas:&lt;/b&gt;&lt;div&gt;&amp;nbsp;Estructuradas,&amp;nbsp;&lt;div&gt;semi-estructuradas,&amp;nbsp;no estructuradas&lt;/div&gt;&lt;/div&gt;" style="shape=parallelogram;perimeter=parallelogramPerimeter;whiteSpace=wrap;html=1;fixedSize=1;fillColor=#e1d5e7;strokeColor=#9673a6;" vertex="1" parent="UbEVUBbqEcn_ZaoMMAPG-345">
          <mxGeometry x="140" y="16" width="165.5" height="60" as="geometry" />
        </mxCell>
        <mxCell id="UbEVUBbqEcn_ZaoMMAPG-371" style="edgeStyle=orthogonalEdgeStyle;rounded=0;orthogonalLoop=1;jettySize=auto;html=1;exitX=1;exitY=0.25;exitDx=0;exitDy=0;entryX=0;entryY=0.25;entryDx=0;entryDy=0;" edge="1" parent="UbEVUBbqEcn_ZaoMMAPG-345" source="UbEVUBbqEcn_ZaoMMAPG-139" target="UbEVUBbqEcn_ZaoMMAPG-321">
          <mxGeometry relative="1" as="geometry" />
        </mxCell>
        <mxCell id="UbEVUBbqEcn_ZaoMMAPG-372" style="edgeStyle=orthogonalEdgeStyle;rounded=0;orthogonalLoop=1;jettySize=auto;html=1;exitX=1;exitY=0.5;exitDx=0;exitDy=0;" edge="1" parent="UbEVUBbqEcn_ZaoMMAPG-345" source="UbEVUBbqEcn_ZaoMMAPG-139" target="UbEVUBbqEcn_ZaoMMAPG-320">
          <mxGeometry relative="1" as="geometry" />
        </mxCell>
        <mxCell id="UbEVUBbqEcn_ZaoMMAPG-373" style="edgeStyle=orthogonalEdgeStyle;rounded=0;orthogonalLoop=1;jettySize=auto;html=1;exitX=1;exitY=1;exitDx=0;exitDy=0;entryX=0;entryY=0.75;entryDx=0;entryDy=0;" edge="1" parent="UbEVUBbqEcn_ZaoMMAPG-345" source="UbEVUBbqEcn_ZaoMMAPG-139" target="UbEVUBbqEcn_ZaoMMAPG-319">
          <mxGeometry relative="1" as="geometry">
            <Array as="points">
              <mxPoint x="98" y="224" />
              <mxPoint x="116" y="224" />
            </Array>
          </mxGeometry>
        </mxCell>
        <mxCell id="UbEVUBbqEcn_ZaoMMAPG-139" value="&lt;br&gt;&lt;strong&gt;Técnicas:&lt;/strong&gt;&lt;div&gt;&lt;br/&gt;&lt;/div&gt;" style="rounded=0;whiteSpace=wrap;html=1;fillColor=#d5e8d4;strokeColor=#82b366;" vertex="1" parent="UbEVUBbqEcn_ZaoMMAPG-345">
          <mxGeometry x="-22" y="110" width="120" height="60" as="geometry" />
        </mxCell>
        <mxCell id="UbEVUBbqEcn_ZaoMMAPG-337" style="edgeStyle=orthogonalEdgeStyle;rounded=0;orthogonalLoop=1;jettySize=auto;html=1;exitX=0.75;exitY=0;exitDx=0;exitDy=0;entryX=0;entryY=0.5;entryDx=0;entryDy=0;" edge="1" parent="UbEVUBbqEcn_ZaoMMAPG-345" source="UbEVUBbqEcn_ZaoMMAPG-139" target="UbEVUBbqEcn_ZaoMMAPG-322">
          <mxGeometry relative="1" as="geometry">
            <Array as="points">
              <mxPoint x="68" y="34" />
            </Array>
          </mxGeometry>
        </mxCell>
        <mxCell id="UbEVUBbqEcn_ZaoMMAPG-363" style="edgeStyle=orthogonalEdgeStyle;rounded=0;orthogonalLoop=1;jettySize=auto;html=1;exitX=0.75;exitY=1;exitDx=0;exitDy=0;entryX=0;entryY=0.693;entryDx=0;entryDy=0;entryPerimeter=0;" edge="1" parent="UbEVUBbqEcn_ZaoMMAPG-361" source="UbEVUBbqEcn_ZaoMMAPG-138" target="UbEVUBbqEcn_ZaoMMAPG-140">
          <mxGeometry relative="1" as="geometry">
            <Array as="points">
              <mxPoint x="77" y="264" />
              <mxPoint x="77" y="363" />
            </Array>
          </mxGeometry>
        </mxCell>
        <mxCell id="UbEVUBbqEcn_ZaoMMAPG-477" value="" style="group" vertex="1" connectable="0" parent="UbEVUBbqEcn_ZaoMMAPG-483">
          <mxGeometry x="1215.9244535402008" y="270.5" width="406" height="308.5" as="geometry" />
        </mxCell>
        <mxCell id="UbEVUBbqEcn_ZaoMMAPG-471" style="edgeStyle=orthogonalEdgeStyle;rounded=0;orthogonalLoop=1;jettySize=auto;html=1;exitX=0.5;exitY=1;exitDx=0;exitDy=0;entryX=0;entryY=0.5;entryDx=0;entryDy=0;" edge="1" parent="UbEVUBbqEcn_ZaoMMAPG-477" source="UbEVUBbqEcn_ZaoMMAPG-375" target="UbEVUBbqEcn_ZaoMMAPG-468">
          <mxGeometry relative="1" as="geometry" />
        </mxCell>
        <mxCell id="UbEVUBbqEcn_ZaoMMAPG-472" style="edgeStyle=orthogonalEdgeStyle;rounded=0;orthogonalLoop=1;jettySize=auto;html=1;exitX=0.75;exitY=1;exitDx=0;exitDy=0;entryX=0;entryY=0.5;entryDx=0;entryDy=0;" edge="1" parent="UbEVUBbqEcn_ZaoMMAPG-477" source="UbEVUBbqEcn_ZaoMMAPG-375" target="UbEVUBbqEcn_ZaoMMAPG-377">
          <mxGeometry relative="1" as="geometry" />
        </mxCell>
        <mxCell id="UbEVUBbqEcn_ZaoMMAPG-473" style="edgeStyle=orthogonalEdgeStyle;rounded=0;orthogonalLoop=1;jettySize=auto;html=1;exitX=1;exitY=0.75;exitDx=0;exitDy=0;entryX=0;entryY=0.75;entryDx=0;entryDy=0;" edge="1" parent="UbEVUBbqEcn_ZaoMMAPG-477" source="UbEVUBbqEcn_ZaoMMAPG-375" target="UbEVUBbqEcn_ZaoMMAPG-376">
          <mxGeometry relative="1" as="geometry" />
        </mxCell>
        <mxCell id="UbEVUBbqEcn_ZaoMMAPG-474" style="edgeStyle=orthogonalEdgeStyle;rounded=0;orthogonalLoop=1;jettySize=auto;html=1;exitX=1;exitY=0.5;exitDx=0;exitDy=0;entryX=0;entryY=0.75;entryDx=0;entryDy=0;" edge="1" parent="UbEVUBbqEcn_ZaoMMAPG-477" source="UbEVUBbqEcn_ZaoMMAPG-375" target="UbEVUBbqEcn_ZaoMMAPG-379">
          <mxGeometry relative="1" as="geometry" />
        </mxCell>
        <mxCell id="UbEVUBbqEcn_ZaoMMAPG-475" style="edgeStyle=orthogonalEdgeStyle;rounded=0;orthogonalLoop=1;jettySize=auto;html=1;exitX=1;exitY=0;exitDx=0;exitDy=0;entryX=0;entryY=0.75;entryDx=0;entryDy=0;" edge="1" parent="UbEVUBbqEcn_ZaoMMAPG-477" source="UbEVUBbqEcn_ZaoMMAPG-375" target="UbEVUBbqEcn_ZaoMMAPG-378">
          <mxGeometry relative="1" as="geometry" />
        </mxCell>
        <mxCell id="UbEVUBbqEcn_ZaoMMAPG-476" style="edgeStyle=orthogonalEdgeStyle;rounded=0;orthogonalLoop=1;jettySize=auto;html=1;exitX=0.75;exitY=0;exitDx=0;exitDy=0;entryX=0;entryY=0.75;entryDx=0;entryDy=0;" edge="1" parent="UbEVUBbqEcn_ZaoMMAPG-477" source="UbEVUBbqEcn_ZaoMMAPG-375" target="UbEVUBbqEcn_ZaoMMAPG-380">
          <mxGeometry relative="1" as="geometry" />
        </mxCell>
        <mxCell id="UbEVUBbqEcn_ZaoMMAPG-375" value="&lt;p data-sourcepos=&quot;49:1-49:13&quot;&gt;&lt;strong&gt;Roles:&lt;/strong&gt;&lt;/p&gt;" style="rounded=0;whiteSpace=wrap;html=1;fillColor=#f8cecc;strokeColor=#b85450;" vertex="1" parent="UbEVUBbqEcn_ZaoMMAPG-477">
          <mxGeometry y="156.5" width="120" height="47" as="geometry" />
        </mxCell>
        <mxCell id="UbEVUBbqEcn_ZaoMMAPG-376" value="&lt;b&gt;C&lt;/b&gt;&lt;strong&gt;liente líder:&lt;/strong&gt;&amp;nbsp;Representante del cliente en el proyecto" style="rounded=0;whiteSpace=wrap;html=1;fillColor=#d5e8d4;strokeColor=#82b366;" vertex="1" parent="UbEVUBbqEcn_ZaoMMAPG-477">
          <mxGeometry x="176" y="167.5" width="228" height="40" as="geometry" />
        </mxCell>
        <mxCell id="UbEVUBbqEcn_ZaoMMAPG-377" value="&lt;b&gt;D&lt;/b&gt;&lt;strong&gt;ueño del producto:&lt;/strong&gt;&amp;nbsp;Responsable de la visión del producto" style="rounded=0;whiteSpace=wrap;html=1;fillColor=#d5e8d4;strokeColor=#82b366;" vertex="1" parent="UbEVUBbqEcn_ZaoMMAPG-477">
          <mxGeometry x="176" y="214.5" width="228" height="46" as="geometry" />
        </mxCell>
        <mxCell id="UbEVUBbqEcn_ZaoMMAPG-378" value="&lt;b&gt;A&lt;/b&gt;&lt;strong&gt;ctores:&lt;/strong&gt;&amp;nbsp;Entidades que interactúan con el software" style="rounded=0;whiteSpace=wrap;html=1;fillColor=#d5e8d4;strokeColor=#82b366;" vertex="1" parent="UbEVUBbqEcn_ZaoMMAPG-477">
          <mxGeometry x="176" y="50.5" width="229" height="47" as="geometry" />
        </mxCell>
        <mxCell id="UbEVUBbqEcn_ZaoMMAPG-379" value="&lt;b&gt;S&lt;/b&gt;&lt;strong&gt;takeholders:&lt;/strong&gt;&amp;nbsp;Partes interesadas en el proyecto" style="rounded=0;whiteSpace=wrap;html=1;fillColor=#d5e8d4;strokeColor=#82b366;" vertex="1" parent="UbEVUBbqEcn_ZaoMMAPG-477">
          <mxGeometry x="176" y="111.5" width="228" height="45" as="geometry" />
        </mxCell>
        <mxCell id="UbEVUBbqEcn_ZaoMMAPG-380" value="&lt;b&gt;U&lt;/b&gt;&lt;strong&gt;suarios:&lt;/strong&gt;&amp;nbsp;Quienes utilizan el software" style="rounded=0;whiteSpace=wrap;html=1;fillColor=#d5e8d4;strokeColor=#82b366;" vertex="1" parent="UbEVUBbqEcn_ZaoMMAPG-477">
          <mxGeometry x="176" width="230" height="41" as="geometry" />
        </mxCell>
        <mxCell id="UbEVUBbqEcn_ZaoMMAPG-468" value="&lt;strong&gt;Equipo de desarrollo:&lt;/strong&gt;&amp;nbsp;Implementa el software" style="rounded=0;whiteSpace=wrap;html=1;fillColor=#d5e8d4;strokeColor=#82b366;" vertex="1" parent="UbEVUBbqEcn_ZaoMMAPG-477">
          <mxGeometry x="176" y="265.5" width="228" height="43" as="geometry" />
        </mxCell>
        <mxCell id="UbEVUBbqEcn_ZaoMMAPG-480" value="&lt;p data-sourcepos=&quot;59:1-59:66&quot;&gt;&lt;strong&gt;5. Plantillas ERS (Especificación de Requisitos del Software):&lt;/strong&gt;&lt;/p&gt;&lt;ul data-sourcepos=&quot;61:1-63:0&quot;&gt;&lt;li data-sourcepos=&quot;61:1-61:72&quot;&gt;&lt;/li&gt;&lt;/ul&gt;" style="rounded=0;whiteSpace=wrap;html=1;fillColor=#f8cecc;strokeColor=#b85450;" vertex="1" parent="UbEVUBbqEcn_ZaoMMAPG-483">
          <mxGeometry x="1660.0044535402008" y="70" width="120" height="60" as="geometry" />
        </mxCell>
        <mxCell id="UbEVUBbqEcn_ZaoMMAPG-77" style="edgeStyle=orthogonalEdgeStyle;rounded=0;orthogonalLoop=1;jettySize=auto;html=1;exitX=0.5;exitY=1;exitDx=0;exitDy=0;fillColor=#60a917;strokeColor=#000000;" edge="1" parent="UbEVUBbqEcn_ZaoMMAPG-483" source="UbEVUBbqEcn_ZaoMMAPG-80" target="UbEVUBbqEcn_ZaoMMAPG-81">
          <mxGeometry relative="1" as="geometry">
            <mxPoint x="582.9244535402008" y="211" as="sourcePoint" />
            <Array as="points">
              <mxPoint x="535.9244535402008" y="233" />
            </Array>
          </mxGeometry>
        </mxCell>
        <mxCell id="UbEVUBbqEcn_ZaoMMAPG-78" style="edgeStyle=orthogonalEdgeStyle;rounded=0;orthogonalLoop=1;jettySize=auto;html=1;exitX=0;exitY=1;exitDx=0;exitDy=0;entryX=1;entryY=0.5;entryDx=0;entryDy=0;fillColor=#dae8fc;strokeColor=#000000;" edge="1" parent="UbEVUBbqEcn_ZaoMMAPG-483" source="UbEVUBbqEcn_ZaoMMAPG-80" target="UbEVUBbqEcn_ZaoMMAPG-82">
          <mxGeometry relative="1" as="geometry">
            <Array as="points">
              <mxPoint x="487.92445354020083" y="199" />
              <mxPoint x="487.92445354020083" y="266" />
            </Array>
          </mxGeometry>
        </mxCell>
        <mxCell id="UbEVUBbqEcn_ZaoMMAPG-75" style="edgeStyle=orthogonalEdgeStyle;rounded=0;orthogonalLoop=1;jettySize=auto;html=1;exitX=0;exitY=0.25;exitDx=0;exitDy=0;fillColor=#d80073;strokeColor=#000000;" edge="1" parent="UbEVUBbqEcn_ZaoMMAPG-483" source="UbEVUBbqEcn_ZaoMMAPG-80" target="UbEVUBbqEcn_ZaoMMAPG-83">
          <mxGeometry relative="1" as="geometry">
            <mxPoint x="492.92445354020083" y="98" as="targetPoint" />
            <Array as="points">
              <mxPoint x="454.92445354020083" y="168" />
              <mxPoint x="454.92445354020083" y="108" />
            </Array>
          </mxGeometry>
        </mxCell>
        <mxCell id="UbEVUBbqEcn_ZaoMMAPG-76" style="edgeStyle=orthogonalEdgeStyle;rounded=0;orthogonalLoop=1;jettySize=auto;html=1;exitX=0;exitY=0.5;exitDx=0;exitDy=0;fillColor=#0050ef;strokeColor=#000000;" edge="1" parent="UbEVUBbqEcn_ZaoMMAPG-483" source="UbEVUBbqEcn_ZaoMMAPG-80" target="UbEVUBbqEcn_ZaoMMAPG-84">
          <mxGeometry relative="1" as="geometry">
            <Array as="points">
              <mxPoint x="466.92445354020083" y="183" />
              <mxPoint x="466.92445354020083" y="199" />
            </Array>
          </mxGeometry>
        </mxCell>
        <mxCell id="UbEVUBbqEcn_ZaoMMAPG-136" style="edgeStyle=orthogonalEdgeStyle;rounded=0;orthogonalLoop=1;jettySize=auto;html=1;exitX=0.25;exitY=1;exitDx=0;exitDy=0;" edge="1" parent="UbEVUBbqEcn_ZaoMMAPG-483" source="UbEVUBbqEcn_ZaoMMAPG-80" target="UbEVUBbqEcn_ZaoMMAPG-85">
          <mxGeometry relative="1" as="geometry">
            <Array as="points">
              <mxPoint x="505.92445354020083" y="309" />
            </Array>
          </mxGeometry>
        </mxCell>
        <mxCell id="UbEVUBbqEcn_ZaoMMAPG-625" value="&lt;li data-sourcepos=&quot;104:1-104:55&quot;&gt;&lt;strong&gt;Procesos:&lt;/strong&gt; Secuenciales, iterativos, incrementales&lt;/li&gt;&lt;li data-sourcepos=&quot;105:1-105:44&quot;&gt;&lt;/li&gt;" style="rounded=0;whiteSpace=wrap;html=1;fillColor=#d5e8d4;strokeColor=#82b366;" vertex="1" parent="UbEVUBbqEcn_ZaoMMAPG-483">
          <mxGeometry y="-15" width="183" height="60" as="geometry" />
        </mxCell>
        <mxCell id="UbEVUBbqEcn_ZaoMMAPG-626" value="&lt;strong&gt;Características:&lt;/strong&gt; Definido, controlado," style="rounded=0;whiteSpace=wrap;html=1;fillColor=#d5e8d4;strokeColor=#82b366;" vertex="1" parent="UbEVUBbqEcn_ZaoMMAPG-483">
          <mxGeometry y="55" width="182" height="60" as="geometry" />
        </mxCell>
        <mxCell id="UbEVUBbqEcn_ZaoMMAPG-479" value="&lt;p data-sourcepos=&quot;87:1-87:35&quot;&gt;&lt;strong&gt;10. Trazabilidad de requisitos:&lt;/strong&gt;&lt;/p&gt;&lt;ul data-sourcepos=&quot;89:1-92:0&quot;&gt;&lt;li data-sourcepos=&quot;89:1-89:79&quot;&gt;&lt;/li&gt;&lt;/ul&gt;" style="rounded=0;whiteSpace=wrap;html=1;fillColor=#f8cecc;strokeColor=#b85450;" vertex="1" parent="UbEVUBbqEcn_ZaoMMAPG-67">
          <mxGeometry x="1949" y="933" width="120" height="60" as="geometry" />
        </mxCell>
        <mxCell id="UbEVUBbqEcn_ZaoMMAPG-582" value="&lt;p data-sourcepos=&quot;81:1-81:34&quot;&gt;&lt;strong&gt;9. Priorización de requisitos:&lt;/strong&gt;&lt;/p&gt;&lt;ul data-sourcepos=&quot;83:1-86:0&quot;&gt;&lt;li data-sourcepos=&quot;83:1-83:65&quot;&gt;&lt;/li&gt;&lt;/ul&gt;" style="rounded=0;whiteSpace=wrap;html=1;fillColor=#f8cecc;strokeColor=#b85450;" vertex="1" parent="UbEVUBbqEcn_ZaoMMAPG-67">
          <mxGeometry x="2227" y="815" width="120" height="60" as="geometry" />
        </mxCell>
        <mxCell id="UbEVUBbqEcn_ZaoMMAPG-633" style="edgeStyle=orthogonalEdgeStyle;rounded=0;orthogonalLoop=1;jettySize=auto;html=1;exitX=0.5;exitY=0;exitDx=0;exitDy=0;entryX=0.25;entryY=1;entryDx=0;entryDy=0;" edge="1" parent="UbEVUBbqEcn_ZaoMMAPG-67" source="UbEVUBbqEcn_ZaoMMAPG-583" target="UbEVUBbqEcn_ZaoMMAPG-605">
          <mxGeometry relative="1" as="geometry" />
        </mxCell>
        <mxCell id="UbEVUBbqEcn_ZaoMMAPG-634" style="edgeStyle=orthogonalEdgeStyle;rounded=0;orthogonalLoop=1;jettySize=auto;html=1;exitX=0;exitY=0.5;exitDx=0;exitDy=0;entryX=0;entryY=0.5;entryDx=0;entryDy=0;" edge="1" parent="UbEVUBbqEcn_ZaoMMAPG-67" source="UbEVUBbqEcn_ZaoMMAPG-583" target="UbEVUBbqEcn_ZaoMMAPG-606">
          <mxGeometry relative="1" as="geometry" />
        </mxCell>
        <mxCell id="UbEVUBbqEcn_ZaoMMAPG-583" value="&lt;p data-sourcepos=&quot;75:1-75:29&quot;&gt;&lt;strong&gt;8. Gestión de requisitos:&lt;/strong&gt;&lt;/p&gt;&lt;ul data-sourcepos=&quot;77:1-80:0&quot;&gt;&lt;li data-sourcepos=&quot;77:1-77:82&quot;&gt;&lt;/li&gt;&lt;/ul&gt;" style="rounded=0;whiteSpace=wrap;html=1;fillColor=#f8cecc;strokeColor=#b85450;" vertex="1" parent="UbEVUBbqEcn_ZaoMMAPG-67">
          <mxGeometry x="2485" y="769" width="120" height="60" as="geometry" />
        </mxCell>
        <mxCell id="UbEVUBbqEcn_ZaoMMAPG-584" value="&lt;p data-sourcepos=&quot;69:1-69:30&quot;&gt;&lt;strong&gt;7. Análisis de requisitos:&lt;/strong&gt;&lt;/p&gt;&lt;ul data-sourcepos=&quot;71:1-74:0&quot;&gt;&lt;li data-sourcepos=&quot;71:1-71:62&quot;&gt;&lt;/li&gt;&lt;/ul&gt;" style="rounded=0;whiteSpace=wrap;html=1;fillColor=#f8cecc;strokeColor=#b85450;" vertex="1" parent="UbEVUBbqEcn_ZaoMMAPG-67">
          <mxGeometry x="2863" y="619" width="120" height="60" as="geometry" />
        </mxCell>
        <mxCell id="UbEVUBbqEcn_ZaoMMAPG-585" value="&lt;p data-sourcepos=&quot;64:1-64:25&quot;&gt;&lt;strong&gt;6. Estándar IEEE 830:&lt;/strong&gt;&lt;/p&gt;&lt;ul data-sourcepos=&quot;66:1-68:0&quot;&gt;&lt;li data-sourcepos=&quot;66:1-66:82&quot;&gt;&lt;/li&gt;&lt;/ul&gt;" style="rounded=0;whiteSpace=wrap;html=1;fillColor=#f8cecc;strokeColor=#b85450;" vertex="1" parent="UbEVUBbqEcn_ZaoMMAPG-67">
          <mxGeometry x="2905" y="1053" width="120" height="60" as="geometry" />
        </mxCell>
        <mxCell id="UbEVUBbqEcn_ZaoMMAPG-589" style="edgeStyle=orthogonalEdgeStyle;rounded=0;orthogonalLoop=1;jettySize=auto;html=1;exitX=0.75;exitY=0;exitDx=0;exitDy=0;" edge="1" parent="UbEVUBbqEcn_ZaoMMAPG-67" source="UbEVUBbqEcn_ZaoMMAPG-71">
          <mxGeometry relative="1" as="geometry">
            <mxPoint x="2926" y="682" as="targetPoint" />
            <Array as="points">
              <mxPoint x="2758" y="1373" />
              <mxPoint x="2758" y="861" />
              <mxPoint x="2926" y="861" />
            </Array>
          </mxGeometry>
        </mxCell>
        <mxCell id="UbEVUBbqEcn_ZaoMMAPG-591" style="edgeStyle=orthogonalEdgeStyle;rounded=0;orthogonalLoop=1;jettySize=auto;html=1;exitX=0.75;exitY=0;exitDx=0;exitDy=0;entryX=0.5;entryY=1;entryDx=0;entryDy=0;" edge="1" parent="UbEVUBbqEcn_ZaoMMAPG-67" source="UbEVUBbqEcn_ZaoMMAPG-71" target="UbEVUBbqEcn_ZaoMMAPG-582">
          <mxGeometry relative="1" as="geometry">
            <Array as="points">
              <mxPoint x="2384" y="1373" />
              <mxPoint x="2384" y="908" />
              <mxPoint x="2287" y="908" />
            </Array>
          </mxGeometry>
        </mxCell>
        <mxCell id="UbEVUBbqEcn_ZaoMMAPG-592" style="edgeStyle=orthogonalEdgeStyle;rounded=0;orthogonalLoop=1;jettySize=auto;html=1;exitX=0.25;exitY=0;exitDx=0;exitDy=0;entryX=1;entryY=0.75;entryDx=0;entryDy=0;" edge="1" parent="UbEVUBbqEcn_ZaoMMAPG-67" source="UbEVUBbqEcn_ZaoMMAPG-71" target="UbEVUBbqEcn_ZaoMMAPG-479">
          <mxGeometry relative="1" as="geometry" />
        </mxCell>
        <mxCell id="UbEVUBbqEcn_ZaoMMAPG-137" value="&lt;p data-sourcepos=&quot;100:1-100:49&quot;&gt;&lt;strong&gt;12. Ciclo de vida de desarrollo del software:&lt;/strong&gt;&lt;/p&gt;&lt;ul data-sourcepos=&quot;102:1-105:44&quot;&gt;&lt;li data-sourcepos=&quot;102:1-102:84&quot;&gt;&lt;/li&gt;&lt;/ul&gt;" style="rounded=0;whiteSpace=wrap;html=1;fillColor=#f8cecc;strokeColor=#b85450;" vertex="1" parent="UbEVUBbqEcn_ZaoMMAPG-67">
          <mxGeometry x="1579" y="1146" width="120" height="60" as="geometry" />
        </mxCell>
        <mxCell id="UbEVUBbqEcn_ZaoMMAPG-593" style="edgeStyle=orthogonalEdgeStyle;rounded=0;orthogonalLoop=1;jettySize=auto;html=1;exitX=0;exitY=0;exitDx=0;exitDy=0;" edge="1" parent="UbEVUBbqEcn_ZaoMMAPG-67" source="UbEVUBbqEcn_ZaoMMAPG-71" target="UbEVUBbqEcn_ZaoMMAPG-137">
          <mxGeometry relative="1" as="geometry">
            <Array as="points">
              <mxPoint x="2293" y="1254" />
              <mxPoint x="1833" y="1254" />
              <mxPoint x="1833" y="1178" />
              <mxPoint x="1591" y="1178" />
              <mxPoint x="1591" y="1174" />
            </Array>
          </mxGeometry>
        </mxCell>
        <mxCell id="UbEVUBbqEcn_ZaoMMAPG-597" style="edgeStyle=orthogonalEdgeStyle;rounded=0;orthogonalLoop=1;jettySize=auto;html=1;exitX=0.75;exitY=0;exitDx=0;exitDy=0;entryX=0.5;entryY=1;entryDx=0;entryDy=0;" edge="1" parent="UbEVUBbqEcn_ZaoMMAPG-67" source="UbEVUBbqEcn_ZaoMMAPG-71" target="UbEVUBbqEcn_ZaoMMAPG-585">
          <mxGeometry relative="1" as="geometry">
            <Array as="points">
              <mxPoint x="2459" y="1371" />
              <mxPoint x="2459" y="1242" />
              <mxPoint x="2965" y="1242" />
            </Array>
          </mxGeometry>
        </mxCell>
        <mxCell id="UbEVUBbqEcn_ZaoMMAPG-598" value="&lt;li data-sourcepos=&quot;61:1-61:72&quot;&gt;&lt;strong&gt;Actividades:&lt;/strong&gt; Identificación de requisitos, análisis, documentación&lt;/li&gt;&lt;li data-sourcepos=&quot;62:1-63:0&quot;&gt;&lt;/li&gt;" style="rounded=0;whiteSpace=wrap;html=1;fillColor=#d5e8d4;strokeColor=#82b366;" vertex="1" parent="UbEVUBbqEcn_ZaoMMAPG-67">
          <mxGeometry x="3226" y="1243" width="120" height="60" as="geometry" />
        </mxCell>
        <mxCell id="UbEVUBbqEcn_ZaoMMAPG-599" value="&lt;ul data-sourcepos=&quot;61:1-63:0&quot;&gt;&lt;li data-sourcepos=&quot;62:1-63:0&quot;&gt;&lt;strong&gt;Características:&lt;/strong&gt; Completas, consistentes, organizadas&lt;/li&gt;&lt;/ul&gt;&lt;p data-sourcepos=&quot;64:1-64:25&quot;&gt;&lt;/p&gt;" style="rounded=0;whiteSpace=wrap;html=1;fillColor=#d5e8d4;strokeColor=#82b366;" vertex="1" parent="UbEVUBbqEcn_ZaoMMAPG-67">
          <mxGeometry x="3233" y="1330" width="120" height="60" as="geometry" />
        </mxCell>
        <mxCell id="UbEVUBbqEcn_ZaoMMAPG-600" value="&lt;li data-sourcepos=&quot;66:1-66:82&quot;&gt;&lt;strong&gt;Concepto:&lt;/strong&gt; Define un proceso para la especificación de requisitos de software&lt;/li&gt;&lt;li data-sourcepos=&quot;67:1-68:0&quot;&gt;&lt;/li&gt;" style="rounded=0;whiteSpace=wrap;html=1;fillColor=#d5e8d4;strokeColor=#82b366;" vertex="1" parent="UbEVUBbqEcn_ZaoMMAPG-67">
          <mxGeometry x="3060" y="1007" width="120" height="60" as="geometry" />
        </mxCell>
        <mxCell id="UbEVUBbqEcn_ZaoMMAPG-601" value="&lt;ul data-sourcepos=&quot;66:1-68:0&quot;&gt;&lt;li data-sourcepos=&quot;67:1-68:0&quot;&gt;&lt;strong&gt;Características:&lt;/strong&gt; Estructurada, modular, detallada&lt;/li&gt;&lt;/ul&gt;&lt;p data-sourcepos=&quot;69:1-69:30&quot;&gt;&lt;/p&gt;" style="rounded=0;whiteSpace=wrap;html=1;fillColor=#d5e8d4;strokeColor=#82b366;" vertex="1" parent="UbEVUBbqEcn_ZaoMMAPG-67">
          <mxGeometry x="3058" y="1107" width="120" height="60" as="geometry" />
        </mxCell>
        <mxCell id="UbEVUBbqEcn_ZaoMMAPG-602" value="&lt;li data-sourcepos=&quot;71:1-71:62&quot;&gt;&lt;strong&gt;Concepto:&lt;/strong&gt; Proceso de comprender y definir los requisitos&lt;/li&gt;&lt;li data-sourcepos=&quot;72:1-72:99&quot;&gt;&lt;/li&gt;" style="rounded=0;whiteSpace=wrap;html=1;fillColor=#d5e8d4;strokeColor=#82b366;" vertex="1" parent="UbEVUBbqEcn_ZaoMMAPG-67">
          <mxGeometry x="3005" y="469" width="120" height="60" as="geometry" />
        </mxCell>
        <mxCell id="UbEVUBbqEcn_ZaoMMAPG-603" value="&lt;li data-sourcepos=&quot;72:1-72:99&quot;&gt;&lt;strong&gt;Técnicas de análisis:&lt;/strong&gt; Análisis de casos de uso, modelado de datos, análisis de flujo de datos&lt;/li&gt;&lt;li data-sourcepos=&quot;73:1-74:0&quot;&gt;&lt;/li&gt;" style="rounded=0;whiteSpace=wrap;html=1;fillColor=#d5e8d4;strokeColor=#82b366;" vertex="1" parent="UbEVUBbqEcn_ZaoMMAPG-67">
          <mxGeometry x="3010" y="559" width="120" height="60" as="geometry" />
        </mxCell>
        <mxCell id="UbEVUBbqEcn_ZaoMMAPG-604" value="&lt;ul data-sourcepos=&quot;71:1-74:0&quot;&gt;&lt;li data-sourcepos=&quot;73:1-74:0&quot;&gt;&lt;strong&gt;Características:&lt;/strong&gt; Completo, preciso, consistente&lt;/li&gt;&lt;/ul&gt;&lt;p data-sourcepos=&quot;75:1-75:29&quot;&gt;&lt;/p&gt;" style="rounded=0;whiteSpace=wrap;html=1;fillColor=#d5e8d4;strokeColor=#82b366;" vertex="1" parent="UbEVUBbqEcn_ZaoMMAPG-67">
          <mxGeometry x="3017" y="659" width="120" height="60" as="geometry" />
        </mxCell>
        <mxCell id="UbEVUBbqEcn_ZaoMMAPG-605" value="&lt;li data-sourcepos=&quot;77:1-77:82&quot;&gt;&lt;strong&gt;Objetivos:&lt;/strong&gt; Asegurar que los requisitos sean correctos, completos y trazables&lt;/li&gt;&lt;li data-sourcepos=&quot;78:1-78:102&quot;&gt;&lt;/li&gt;" style="rounded=0;whiteSpace=wrap;html=1;fillColor=#d5e8d4;strokeColor=#82b366;" vertex="1" parent="UbEVUBbqEcn_ZaoMMAPG-67">
          <mxGeometry x="2483" y="666" width="206" height="60" as="geometry" />
        </mxCell>
        <mxCell id="UbEVUBbqEcn_ZaoMMAPG-606" value="&lt;li data-sourcepos=&quot;78:1-78:102&quot;&gt;&lt;strong&gt;Ciclo de vida:&lt;/strong&gt; Identificación, análisis, especificación, validación, verificación, mantenimiento&lt;/li&gt;&lt;li data-sourcepos=&quot;79:1-80:0&quot;&gt;&lt;/li&gt;" style="rounded=0;whiteSpace=wrap;html=1;fillColor=#d5e8d4;strokeColor=#82b366;" vertex="1" parent="UbEVUBbqEcn_ZaoMMAPG-67">
          <mxGeometry x="2483" y="573" width="210" height="60" as="geometry" />
        </mxCell>
        <mxCell id="UbEVUBbqEcn_ZaoMMAPG-607" value="&lt;ul data-sourcepos=&quot;77:1-80:0&quot;&gt;&lt;li data-sourcepos=&quot;79:1-80:0&quot;&gt;&lt;strong&gt;Actividades:&lt;/strong&gt; Priorización, trazabilidad, control de cambios&lt;/li&gt;&lt;/ul&gt;&lt;p data-sourcepos=&quot;81:1-81:34&quot;&gt;&lt;/p&gt;" style="rounded=0;whiteSpace=wrap;html=1;fillColor=#d5e8d4;strokeColor=#82b366;" vertex="1" parent="UbEVUBbqEcn_ZaoMMAPG-67">
          <mxGeometry x="2483" y="493" width="120" height="60" as="geometry" />
        </mxCell>
        <mxCell id="UbEVUBbqEcn_ZaoMMAPG-608" value="&lt;li data-sourcepos=&quot;83:1-83:65&quot;&gt;&lt;strong&gt;Concepto:&lt;/strong&gt; Proceso de ordenar los requisitos por importancia&lt;/li&gt;&lt;li data-sourcepos=&quot;84:1-84:49&quot;&gt;&lt;/li&gt;" style="rounded=0;whiteSpace=wrap;html=1;fillColor=#d5e8d4;strokeColor=#82b366;" vertex="1" parent="UbEVUBbqEcn_ZaoMMAPG-67">
          <mxGeometry x="2230" y="729" width="120" height="60" as="geometry" />
        </mxCell>
        <mxCell id="UbEVUBbqEcn_ZaoMMAPG-609" value="&lt;ul data-sourcepos=&quot;83:1-86:0&quot;&gt;&lt;li data-sourcepos=&quot;85:1-86:0&quot;&gt;&lt;strong&gt;Características:&lt;/strong&gt; Objetiva, transparente, medible&lt;/li&gt;&lt;/ul&gt;&lt;p data-sourcepos=&quot;87:1-87:35&quot;&gt;&lt;/p&gt;" style="rounded=0;whiteSpace=wrap;html=1;fillColor=#d5e8d4;strokeColor=#82b366;" vertex="1" parent="UbEVUBbqEcn_ZaoMMAPG-67">
          <mxGeometry x="2230" y="579" width="120" height="60" as="geometry" />
        </mxCell>
        <mxCell id="UbEVUBbqEcn_ZaoMMAPG-610" value="&lt;li data-sourcepos=&quot;84:1-84:49&quot;&gt;&lt;strong&gt;Técnicas:&lt;/strong&gt; Valor comercial, esfuerzo, riesgo&lt;/li&gt;&lt;li data-sourcepos=&quot;85:1-86:0&quot;&gt;&lt;/li&gt;" style="rounded=0;whiteSpace=wrap;html=1;fillColor=#d5e8d4;strokeColor=#82b366;" vertex="1" parent="UbEVUBbqEcn_ZaoMMAPG-67">
          <mxGeometry x="2230" y="652" width="120" height="60" as="geometry" />
        </mxCell>
        <mxCell id="UbEVUBbqEcn_ZaoMMAPG-612" value="&lt;li data-sourcepos=&quot;89:1-89:79&quot;&gt;&lt;strong&gt;Concepto:&lt;/strong&gt; Vincular los requisitos a través del ciclo de vida del software&lt;/li&gt;&lt;li data-sourcepos=&quot;90:1-90:83&quot;&gt;&lt;/li&gt;" style="rounded=0;whiteSpace=wrap;html=1;fillColor=#d5e8d4;strokeColor=#82b366;" vertex="1" parent="UbEVUBbqEcn_ZaoMMAPG-67">
          <mxGeometry x="1930" y="829" width="184" height="60" as="geometry" />
        </mxCell>
        <mxCell id="UbEVUBbqEcn_ZaoMMAPG-613" value="&lt;li data-sourcepos=&quot;90:1-90:83&quot;&gt;&lt;strong&gt;Importancia:&lt;/strong&gt; Permite rastrear el origen de cada requisito y su implementación&lt;/li&gt;&lt;li data-sourcepos=&quot;91:1-92:0&quot;&gt;&lt;/li&gt;" style="rounded=0;whiteSpace=wrap;html=1;fillColor=#d5e8d4;strokeColor=#82b366;" vertex="1" parent="UbEVUBbqEcn_ZaoMMAPG-67">
          <mxGeometry x="1927" y="745" width="184" height="60" as="geometry" />
        </mxCell>
        <mxCell id="UbEVUBbqEcn_ZaoMMAPG-611" value="&lt;ul data-sourcepos=&quot;89:1-92:0&quot;&gt;&lt;li data-sourcepos=&quot;91:1-92:0&quot;&gt;&lt;strong&gt;Matriz de trazabilidad:&lt;/strong&gt; Herramienta para documentar la trazabilidad&lt;/li&gt;&lt;/ul&gt;&lt;p data-sourcepos=&quot;93:1-93:48&quot;&gt;&lt;/p&gt;" style="rounded=0;whiteSpace=wrap;html=1;fillColor=#d5e8d4;strokeColor=#82b366;" vertex="1" parent="UbEVUBbqEcn_ZaoMMAPG-67">
          <mxGeometry x="1930" y="672" width="182" height="60" as="geometry" />
        </mxCell>
        <mxCell id="UbEVUBbqEcn_ZaoMMAPG-616" value="&lt;p data-sourcepos=&quot;93:1-93:48&quot;&gt;&lt;strong&gt;11. Informe de especificación de requisitos:&lt;/strong&gt;&lt;/p&gt;&lt;ul data-sourcepos=&quot;95:1-99:0&quot;&gt;&lt;li data-sourcepos=&quot;95:1-95:66&quot;&gt;&lt;/li&gt;&lt;/ul&gt;" style="rounded=0;whiteSpace=wrap;html=1;fillColor=#f8cecc;strokeColor=#b85450;" vertex="1" parent="UbEVUBbqEcn_ZaoMMAPG-67">
          <mxGeometry x="1434" y="839" width="120" height="60" as="geometry" />
        </mxCell>
        <mxCell id="UbEVUBbqEcn_ZaoMMAPG-617" style="edgeStyle=orthogonalEdgeStyle;rounded=0;orthogonalLoop=1;jettySize=auto;html=1;exitX=0;exitY=0;exitDx=0;exitDy=0;entryX=1;entryY=1;entryDx=0;entryDy=0;" edge="1" parent="UbEVUBbqEcn_ZaoMMAPG-67" source="UbEVUBbqEcn_ZaoMMAPG-71" target="UbEVUBbqEcn_ZaoMMAPG-616">
          <mxGeometry relative="1" as="geometry">
            <mxPoint x="2293" y="1371" as="sourcePoint" />
            <mxPoint x="1735" y="1146" as="targetPoint" />
            <Array as="points">
              <mxPoint x="2293" y="1060" />
              <mxPoint x="1805" y="1060" />
            </Array>
          </mxGeometry>
        </mxCell>
        <mxCell id="UbEVUBbqEcn_ZaoMMAPG-619" value="&lt;li data-sourcepos=&quot;95:1-95:66&quot;&gt;&lt;strong&gt;Concepto:&lt;/strong&gt; Documento que describe los requisitos del software&lt;/li&gt;&lt;li data-sourcepos=&quot;96:1-96:56&quot;&gt;&lt;/li&gt;" style="rounded=0;whiteSpace=wrap;html=1;fillColor=#d5e8d4;strokeColor=#82b366;" vertex="1" parent="UbEVUBbqEcn_ZaoMMAPG-67">
          <mxGeometry x="1432" y="751" width="143" height="60" as="geometry" />
        </mxCell>
        <mxCell id="UbEVUBbqEcn_ZaoMMAPG-620" value="&lt;li data-sourcepos=&quot;97:1-97:64&quot;&gt;&lt;strong&gt;Requisitos no funcionales:&lt;/strong&gt; Cómo debe funcionar el software&lt;/li&gt;&lt;li data-sourcepos=&quot;98:1-99:0&quot;&gt;&lt;/li&gt;" style="rounded=0;whiteSpace=wrap;html=1;fillColor=#d5e8d4;strokeColor=#82b366;" vertex="1" parent="UbEVUBbqEcn_ZaoMMAPG-67">
          <mxGeometry x="1432" y="609" width="147" height="60" as="geometry" />
        </mxCell>
        <mxCell id="UbEVUBbqEcn_ZaoMMAPG-621" value="&lt;li data-sourcepos=&quot;96:1-96:56&quot;&gt;&lt;strong&gt;Requisitos funcionales:&lt;/strong&gt; Qué debe hacer el software&lt;/li&gt;&lt;li data-sourcepos=&quot;97:1-97:64&quot;&gt;&lt;/li&gt;" style="rounded=0;whiteSpace=wrap;html=1;fillColor=#d5e8d4;strokeColor=#82b366;" vertex="1" parent="UbEVUBbqEcn_ZaoMMAPG-67">
          <mxGeometry x="1432" y="683" width="144" height="60" as="geometry" />
        </mxCell>
        <mxCell id="UbEVUBbqEcn_ZaoMMAPG-622" value="&lt;ul data-sourcepos=&quot;95:1-99:0&quot;&gt;&lt;li data-sourcepos=&quot;98:1-99:0&quot;&gt;&lt;strong&gt;Características:&lt;/strong&gt; Completo, preciso, consistente&lt;/li&gt;&lt;/ul&gt;&lt;p data-sourcepos=&quot;100:1-100:49&quot;&gt;&lt;/p&gt;" style="rounded=0;whiteSpace=wrap;html=1;fillColor=#d5e8d4;strokeColor=#82b366;" vertex="1" parent="UbEVUBbqEcn_ZaoMMAPG-67">
          <mxGeometry x="1430" y="535" width="152" height="60" as="geometry" />
        </mxCell>
        <mxCell id="UbEVUBbqEcn_ZaoMMAPG-623" value="&lt;li data-sourcepos=&quot;102:1-102:84&quot;&gt;&lt;strong&gt;Fases:&lt;/strong&gt; Planificación, análisis, diseño, implementación, pruebas, mantenimiento&lt;/li&gt;&lt;li data-sourcepos=&quot;103:1-103:59&quot;&gt;&lt;/li&gt;" style="rounded=0;whiteSpace=wrap;html=1;fillColor=#d5e8d4;strokeColor=#82b366;" vertex="1" parent="UbEVUBbqEcn_ZaoMMAPG-67">
          <mxGeometry x="1385" y="1062" width="182" height="60" as="geometry" />
        </mxCell>
        <mxCell id="UbEVUBbqEcn_ZaoMMAPG-624" value="&lt;li data-sourcepos=&quot;103:1-103:59&quot;&gt;&lt;strong&gt;Diagramas:&lt;/strong&gt; Casos de uso, actividades, flujos de datos&lt;/li&gt;&lt;li data-sourcepos=&quot;104:1-104:55&quot;&gt;&lt;/li&gt;" style="rounded=0;whiteSpace=wrap;html=1;fillColor=#d5e8d4;strokeColor=#82b366;" vertex="1" parent="UbEVUBbqEcn_ZaoMMAPG-67">
          <mxGeometry x="1385" y="1132" width="183" height="60" as="geometry" />
        </mxCell>
      </root>
    </mxGraphModel>
  </diagram>
</mxfile>
